<svg width="24" height="19" viewBox="0 0 24 19" fill="none" xmlns="http://www.w3.org/2000/svg">
<g clip-path="url(#clip0)">
<path d="M0.0307041 7.92432L0.523012 8.32207C2.21532 9.69888 3.72301 11.2899 5.04609 13.0338C5.69224 13.8905 6.30763 14.8084 6.86147 15.7568C7.01532 16.0322 7.16917 16.3076 7.32301 16.5829C7.32301 16.7665 7.38455 16.8889 7.41532 16.7665C7.47686 16.9195 7.56917 17.0419 7.63071 17.1949L7.72301 17.3784L7.75378 17.4396V17.4702L7.78455 17.562L7.84609 17.715C7.84609 17.715 7.96917 17.9597 8.09224 18.1739C8.21532 18.4187 8.30763 18.6329 8.30763 18.6023C8.3384 18.6635 8.36917 18.7246 8.39994 18.7552L8.36917 18.7858V18.8164C8.46148 19.0612 8.61532 19 8.70763 18.9388C8.70763 18.9388 8.70763 18.9388 8.7384 18.9082L8.95378 18.3269C10.3999 14.6248 12.6461 11.2287 15.2615 8.23028C16.5846 6.73108 17.9692 5.29308 19.4769 3.97746L20.0307 3.48793L20.6153 2.99839L21.2307 2.50886L21.8153 2.04992L22.4615 1.5298C22.4615 1.5298 23.2615 0.826091 23.2307 0.856687C23.5384 0.550729 23.723 0.336558 23.1076 0.673112C22.7384 0.887283 22.2769 1.19324 22.2769 1.19324C22.2153 1.22384 22.1846 1.25443 22.123 1.31562L21.9384 1.4686C21.9384 1.37682 21.9692 1.31562 21.9692 1.31562C21.9384 1.31562 21.9384 1.31562 21.9076 1.31562H21.8769L22.7999 0.856687C22.7999 0.856687 23.723 0.336558 23.6922 0.336558C24.0615 0.0917918 24.2461 -0.091783 23.5999 0.152983C23.1999 0.275367 22.6769 0.489537 22.6769 0.489537L20.1846 1.71337C18.7999 2.38648 17.4153 3.09018 16.123 3.94686C15.4769 4.37521 14.8307 4.80355 14.2153 5.29308C13.5999 5.78261 13.0153 6.27215 12.4307 6.79228C11.2922 7.83253 10.1846 8.93398 9.23071 10.1578C9.10763 10.3108 8.98455 10.4944 8.86147 10.6779V10.7085C8.86147 10.9533 9.04609 10.9533 9.1384 10.9227H9.16917C9.26148 10.8003 9.35378 10.6779 9.44609 10.5556C9.44609 10.6168 9.44609 10.6779 9.41532 10.7391C9.35378 11.504 9.32301 12.2689 9.32301 13.0338C9.32301 13.401 9.32301 13.7987 9.32301 14.1659L9.35378 14.7472L9.38455 15.1449C9.38455 15.1449 9.41532 15.4203 9.44609 15.6651C9.47686 15.9098 9.47686 16.1852 9.47686 16.1546C9.47686 16.2464 9.50763 16.3688 9.50763 16.43C9.23071 17.0419 8.95378 17.6538 8.70763 18.2963L8.67686 18.3881C8.70763 18.0209 8.7384 17.562 8.7384 17.562V17.1643C8.7384 16.8889 8.7384 16.6441 8.7384 16.3688C8.7384 16.0934 8.7384 15.8486 8.76917 15.5733C8.76917 15.4509 8.76917 15.2979 8.79994 15.1755C8.79994 15.0531 8.79994 14.9002 8.79994 14.7472C8.79994 13.6457 8.67686 12.5749 8.76917 11.5346C8.76917 11.3816 8.79994 11.2593 8.83071 11.1063C9.16917 11.3205 9.41532 11.4122 8.95378 10.9227C8.83071 10.7697 8.61532 10.6168 8.49224 10.4638C8.43071 10.4026 8.3384 10.3414 8.30763 10.3108C8.24609 10.2802 8.24609 10.2496 8.24609 10.2496L7.90763 10.0048C7.59994 9.82126 7.32301 9.63769 7.01532 9.45411C6.39994 9.11756 5.78455 8.781 5.10763 8.53624C3.81532 8.01611 2.4307 7.61836 1.01532 7.58777C0.799935 7.58777 0.58455 7.58777 0.369166 7.58777C0.369166 7.58777 0.338396 7.58777 0.338396 7.61836L0.307627 7.64896C-0.0308344 7.64896 -6.51553e-05 7.83253 0.0307041 7.92432ZM21.0769 1.68277C21.0769 1.68277 21.0461 1.68277 21.0461 1.65218L21.5692 1.40741C21.5692 1.4686 21.5692 1.5298 21.5692 1.5298L21.6307 1.62158C21.6615 1.65218 21.6615 1.65218 21.6922 1.65218C21.4769 1.83575 21.2307 2.01933 21.0153 2.2029C21.0461 2.04992 21.1076 1.71337 21.0769 1.68277C21.1076 1.68277 21.1076 1.68277 21.0769 1.68277ZM20.0615 2.9372C20.0615 2.9372 20.0615 2.75363 20.0922 2.57005C20.123 2.35588 20.1538 2.14171 20.1538 2.14171H20.123H20.1538L20.7076 1.83575C20.6769 2.01933 20.6461 2.2029 20.6461 2.2029L20.6769 2.38648C20.6769 2.41707 20.7076 2.41707 20.7076 2.44767C20.4615 2.66184 20.2153 2.87601 19.9384 3.09018C20.0307 3.02899 20.0615 2.9372 20.0615 2.9372ZM18.2769 4.52819L18.4307 3.05959C18.3999 3.05959 18.3999 3.05959 18.3692 3.02899C18.5538 2.90661 18.7692 2.81482 18.9846 2.72303C18.9538 2.81482 18.9538 2.90661 18.9538 2.99839C18.923 3.24316 18.8922 3.48793 18.8922 3.48793L18.923 3.79389C18.9538 3.91627 19.0153 4.00806 19.1384 3.82448C19.1999 3.7021 19.2615 3.54912 19.2615 3.54912C19.2615 3.54912 19.2922 3.30435 19.323 3.05959C19.3538 2.9372 19.3538 2.81482 19.3846 2.72303C19.3538 2.63124 19.3846 2.57005 19.3846 2.57005C19.3846 2.57005 19.3538 2.57005 19.3538 2.53946C19.5076 2.47827 19.6307 2.38648 19.7846 2.32529C19.7846 2.38648 19.7538 2.44767 19.7538 2.50886C19.6922 2.69244 19.6922 2.90661 19.6922 2.90661C19.6922 2.90661 19.6922 2.9678 19.723 3.02899C19.723 3.09018 19.7538 3.15137 19.7538 3.15137C19.7846 3.21257 19.8153 3.24316 19.8461 3.24316C19.7538 3.33495 19.6307 3.42674 19.5384 3.51852C19.1076 3.91627 18.6769 4.28342 18.2461 4.71176C18.2769 4.58938 18.2769 4.52819 18.2769 4.52819ZM17.1999 5.69083C17.2922 5.1707 17.3538 4.71176 17.3538 4.71176L17.3846 4.37521L17.4153 4.22223L17.4769 3.61031V3.57971C17.4769 3.57971 17.4769 3.57972 17.4461 3.54912C17.6307 3.42674 17.8461 3.33495 18.0307 3.21257C17.9999 3.57971 17.9076 4.49759 17.9076 4.49759L17.9384 4.92593C17.9384 4.95653 17.9384 4.95653 17.9384 4.98712C17.6922 5.20129 17.4461 5.44606 17.1999 5.69083ZM16.3384 6.39453C16.3999 5.99678 16.4615 5.41546 16.4615 5.41546V5.07891L16.4922 4.71176C16.4922 4.49759 16.523 4.31401 16.5538 4.09984V4.06925C16.7384 3.94686 16.923 3.85508 17.1076 3.73269L17.0461 4.16104L17.0153 4.31401L16.9846 4.61997C16.9846 4.61997 16.9846 4.89533 16.9846 5.1401C16.9846 5.41546 16.9846 5.66023 17.0153 5.62963C17.0153 5.72142 17.0153 5.78261 17.0461 5.8438C16.7999 6.08857 16.5538 6.33334 16.3384 6.5781C16.3076 6.5781 16.3076 6.48632 16.3384 6.39453ZM15.5384 7.3736C15.5692 6.85347 15.5692 6.39453 15.5692 6.39453V6.05798V5.41546V4.80355V4.77295L15.5384 4.74236C15.723 4.61997 15.9384 4.46699 16.123 4.34461C16.123 4.46699 16.0922 4.58938 16.0922 4.71176L16.0615 5.07891V5.38487C16.0615 5.38487 16.0615 5.66023 16.0922 5.905C16.0922 6.18036 16.123 6.42513 16.123 6.39453C16.123 6.54751 16.1538 6.66989 16.1846 6.76168C15.9692 6.97585 15.7538 7.22062 15.5692 7.46538C15.5384 7.43479 15.5384 7.40419 15.5384 7.3736ZM14.3999 8.75041C14.4615 8.35266 14.523 7.77134 14.523 7.77134V7.43479C14.523 6.97585 14.523 6.51691 14.5538 6.08857C14.5538 5.8744 14.5846 5.69083 14.5846 5.47666C14.7999 5.32368 14.9846 5.1707 15.1999 5.01772V5.47666V6.11917V6.42513C15.1999 6.42513 15.2307 6.70049 15.2615 6.94525C15.2922 7.22062 15.323 7.46538 15.323 7.43479C15.3538 7.52657 15.3538 7.61836 15.3846 7.67955C15.323 7.77134 15.2307 7.83253 15.1692 7.92432C14.923 8.13849 14.6769 8.44445 14.3999 8.75041ZM13.5384 9.82126C13.5692 9.42351 13.5999 8.84219 13.5999 8.84219V8.50564C13.6307 7.98551 13.6615 7.46538 13.6615 6.97585C13.6615 6.76168 13.6615 6.54751 13.6615 6.33334C13.6615 6.33334 13.6615 6.30274 13.6307 6.30274C13.5999 6.27215 13.5999 6.24155 13.5692 6.24155C13.7538 6.08857 13.9692 5.905 14.1538 5.75202C14.1538 5.8438 14.1538 5.93559 14.123 6.02738C14.0922 6.48632 14.0922 6.94525 14.0922 7.40419V7.71015C14.0922 7.71015 14.0922 7.98551 14.123 8.23028C14.123 8.47505 14.1538 8.75041 14.1538 8.71981C14.1538 8.8116 14.1538 8.90339 14.1846 8.99517C13.9999 9.27054 13.7538 9.5459 13.5384 9.82126ZM12.6461 10.4026C12.6769 10.219 12.6769 10.066 12.6769 10.066V9.72947C12.6769 9.57649 12.6769 9.39292 12.6769 9.20934C12.6769 9.05637 12.6769 8.87279 12.6769 8.71981C12.6769 8.38326 12.6461 8.0467 12.6769 7.74075C12.6769 7.52657 12.7076 7.343 12.7384 7.12883V7.09823C12.7076 7.06764 12.7076 7.06764 12.6769 7.03704C12.8922 6.85347 13.0769 6.66989 13.2922 6.51691C13.2922 6.66989 13.2922 6.82287 13.2922 6.97585C13.2922 7.49598 13.2615 7.98551 13.2307 8.50564V8.8116C13.2307 8.8116 13.2307 9.08696 13.2615 9.33173C13.2922 9.60709 13.323 9.85186 13.323 9.82126C13.323 9.91305 13.3538 9.97424 13.3846 10.0354C13.1384 10.372 12.8615 10.7085 12.6153 11.0757V11.0451C12.6153 10.8309 12.6461 10.5862 12.6461 10.4026ZM11.7846 11.1369C11.7846 10.2802 11.7538 9.45411 11.7846 8.59743C11.7846 8.38326 11.7846 8.16909 11.8153 7.98551V7.95492C11.8153 7.92432 11.7846 7.92432 11.7846 7.92432C11.9692 7.74075 12.1846 7.55717 12.3999 7.343C12.3999 7.46538 12.3692 7.58777 12.3692 7.71015C12.3692 8.0467 12.3692 8.38326 12.3692 8.71981C12.3692 8.87279 12.3692 9.05637 12.3692 9.20934C12.3692 9.36232 12.3692 9.5459 12.3692 9.69888V10.0048C12.3692 10.0048 12.3692 10.2802 12.3999 10.525C12.3999 10.8003 12.4615 11.0451 12.4615 11.0145C12.4922 11.1063 12.4922 11.1675 12.523 11.2287C12.2461 11.6264 11.9692 11.9936 11.723 12.3913C11.7846 11.9936 11.8153 11.4428 11.8153 11.4428L11.7846 11.1369ZM10.6769 12.7891C10.6769 11.657 10.7692 10.525 10.8615 9.39292L10.923 8.781C11.0769 8.59743 11.2615 8.44445 11.4153 8.26087C11.4153 8.38326 11.4153 8.50564 11.4153 8.59743C11.3846 9.45411 11.4153 10.3108 11.4153 11.1369V11.4428C11.4153 11.4428 11.4461 11.7182 11.4461 11.963C11.4461 12.2077 11.4769 12.4831 11.4769 12.4525C11.4769 12.5443 11.5076 12.6667 11.5076 12.7279C11.1999 13.1868 10.923 13.6457 10.6461 14.1353C10.6461 13.6763 10.6769 13.1562 10.6769 13.1562C10.6769 13.0338 10.6769 12.9114 10.6769 12.7891ZM9.72301 14.7166L9.69224 14.1353C9.69224 13.7681 9.69224 13.3704 9.69224 13.0032C9.69224 12.2383 9.72301 11.4734 9.78455 10.7085C9.81532 10.4944 9.81532 10.3108 9.84609 10.0966V10.066C9.84609 10.0354 9.81532 10.0354 9.81532 10.0354C10.0307 9.76007 10.2769 9.48471 10.4922 9.23994V9.39292C10.3999 10.525 10.2769 11.6876 10.3076 12.8502V13.1562C10.3076 13.1562 10.3076 13.2174 10.3384 13.3092C10.3384 13.401 10.3692 13.554 10.3692 13.6763C10.3999 13.9517 10.4615 14.1965 10.4615 14.1659C10.4922 14.2577 10.4922 14.3494 10.523 14.4106C10.2461 14.9308 9.96917 15.4509 9.69224 15.971C9.75378 15.5733 9.75378 15.1449 9.75378 15.1449L9.72301 14.7166ZM7.63071 15.7568C7.66147 15.5733 7.66148 15.4203 7.66148 15.4203V15.0225V14.4106L7.63071 13.1868C7.63071 12.3607 7.59994 11.5652 7.66148 10.7391C7.66148 10.6168 7.69224 10.525 7.69224 10.4026H7.72301L7.87686 10.4944C7.87686 10.4944 8.09224 10.6168 8.30763 10.7697C8.3384 10.8003 8.36917 10.8003 8.39994 10.8309C8.36917 11.0451 8.3384 11.2287 8.30763 11.4428C8.21532 12.5137 8.3384 13.5845 8.3384 14.6248C8.3384 14.7472 8.3384 14.8696 8.3384 15.0225L8.30763 15.4203C8.30763 15.6957 8.27686 15.9404 8.27686 16.2158C8.27686 16.4911 8.27686 16.7359 8.27686 17.0113V17.4396C8.27686 17.4396 8.27686 17.6232 8.30763 17.8374C8.24609 17.6844 8.21532 17.5926 8.21532 17.5926L8.12301 17.409L8.09224 17.3172L8.06148 17.2866V17.256L8.03071 17.1643L7.69224 16.43L7.56917 16.1852C7.59994 16.0322 7.63071 15.8792 7.63071 15.7568ZM5.59994 9.63769C5.59994 9.48471 5.63071 9.36232 5.63071 9.20934C5.87686 9.33173 6.12301 9.45411 6.3384 9.57649V10.0354C6.3384 10.9533 6.36917 11.8712 6.39994 12.7891V13.095C6.39994 13.095 6.49224 14.1353 6.49224 14.1047C6.55378 14.533 6.61532 14.8084 6.70763 14.1047C6.76917 13.7069 6.76917 13.1256 6.76917 13.1256V12.7891C6.7384 11.8712 6.70763 10.9533 6.70763 10.0354V9.76007L7.04609 9.94364L7.35378 10.1272C7.32301 10.3108 7.32301 10.4944 7.29224 10.6779C7.23071 11.504 7.23071 12.2995 7.26148 13.1256L7.29224 14.3188V14.9308V15.3285C7.29224 15.3285 7.29224 15.5121 7.29224 15.6957L7.26148 15.6651C6.76917 14.8084 6.21532 13.9823 5.66147 13.2174V13.1868C5.69224 12.7891 5.69224 12.2077 5.69224 12.2077L5.66147 11.8712C5.63071 11.1063 5.56917 10.372 5.59994 9.63769ZM4.39994 8.68922C4.36917 8.68922 4.36917 8.68922 4.39994 8.68922C4.36917 8.71981 4.36917 8.71981 4.36917 8.75041C4.3384 8.96458 4.30763 9.17875 4.30763 9.39292C4.30763 9.5459 4.30763 9.72947 4.30763 9.88245L4.3384 10.1884C4.3384 10.1884 4.36917 10.4638 4.43071 10.7085C4.46147 10.9533 4.52301 11.2287 4.52301 11.1981C4.61532 11.6264 4.70763 11.8712 4.7384 11.1981C4.7384 10.9839 4.7384 10.7391 4.7384 10.5556C4.7384 10.3414 4.7384 10.219 4.7384 10.219L4.70763 9.88245C4.70763 9.72947 4.70763 9.57649 4.70763 9.42352C4.70763 9.20934 4.7384 9.02577 4.76917 8.84219C4.79994 8.84219 4.83071 8.87279 4.86147 8.87279C5.01532 8.93398 5.16917 8.99517 5.32301 9.05637C5.29224 9.23994 5.29224 9.45411 5.29224 9.63769C5.26147 10.4026 5.29224 11.1675 5.35378 11.9324L5.38455 12.2383C5.38455 12.2383 5.44609 12.6361 5.47686 12.9114C4.95378 12.2383 4.43071 11.5652 3.84609 10.9227C3.87686 10.8615 3.87686 10.7391 3.87686 10.5556C3.87686 10.3414 3.87686 10.0966 3.87686 9.91305C3.87686 9.69888 3.87686 9.57649 3.87686 9.57649L3.84609 9.23994V9.14815C3.84609 8.93398 3.81532 8.75041 3.84609 8.53624V8.50564C3.96917 8.53624 4.18455 8.59743 4.39994 8.68922ZM3.47686 8.38326C3.44609 8.41385 3.41532 8.44445 3.38455 8.47505V8.50564C3.38455 8.71981 3.38455 8.93398 3.38455 9.14815V9.23994L3.41532 9.5459C3.41532 9.5459 3.44609 9.79067 3.50763 10.066C3.5384 10.3108 3.59994 10.5862 3.59994 10.5556C3.6307 10.6473 3.6307 10.7391 3.66147 10.8003C3.41532 10.525 3.16917 10.2802 2.89224 10.0048C2.89224 9.97424 2.92301 9.94364 2.92301 9.91305C2.98455 9.72947 2.98455 9.48471 2.98455 9.48471C2.98455 9.48471 2.86147 8.50564 2.8307 8.19968C3.04609 8.26087 3.26147 8.32207 3.47686 8.38326ZM2.09224 8.0467C2.21532 8.0467 2.3384 8.0773 2.49224 8.10789H2.46147C2.46147 8.13849 2.64609 9.48471 2.64609 9.48471C2.64609 9.48471 2.67686 9.60709 2.70763 9.69888C2.52301 9.5153 2.36917 9.36232 2.18455 9.17875C2.21532 9.05637 2.21532 8.90339 2.21532 8.90339C2.21532 8.90339 2.21532 8.84219 2.18455 8.71981C2.15378 8.62802 2.15378 8.47505 2.12301 8.35266C2.06147 8.29147 2.06147 8.16909 2.09224 8.0467ZM1.69224 7.98551C1.69224 8.01611 1.69224 8.01611 1.69224 7.98551C1.69224 8.13849 1.69224 8.29147 1.69224 8.44445C1.72301 8.59743 1.72301 8.75041 1.75378 8.84219C1.75378 8.87279 1.75378 8.87279 1.75378 8.90339C1.6307 8.8116 1.50763 8.68922 1.38455 8.59743C1.38455 8.53624 1.38455 8.50564 1.38455 8.50564C1.38455 8.50564 1.35378 8.26087 1.35378 8.0773C1.35378 8.0467 1.35378 8.01611 1.35378 7.95492C1.44609 7.95492 1.56917 7.98551 1.69224 7.98551ZM0.892243 7.92432C0.923012 7.92432 0.923012 7.92432 0.953781 7.92432C0.953781 7.98551 0.953781 8.0467 0.98455 8.10789C0.98455 8.13849 0.98455 8.16909 0.98455 8.19968C0.923012 8.13849 0.830704 8.0773 0.769166 8.01611L0.646089 7.92432C0.738397 7.92432 0.830704 7.92432 0.892243 7.92432Z" fill="#9FCE0D"/>
</g>
<defs>
<clipPath id="clip0">
<rect width="24" height="19" fill="white"/>
</clipPath>
</defs>
</svg>
