<svg width="121" height="121" viewBox="0 0 121 121" fill="none" xmlns="http://www.w3.org/2000/svg">
<circle cx="60.5" cy="60.5" r="47.5" fill="#3F3359"/>
<circle cx="60.5" cy="60.5" r="59.5" stroke="#9FCE0D" stroke-width="2" stroke-dasharray="2 2"/>
<g clip-path="url(#clip0)">
<path d="M68.238 77.8318C67.0982 75.5054 67.867 72.6942 70.0325 71.2717C72.1977 69.8491 75.083 70.2598 76.7658 72.2299C76.9711 72.4708 77.3242 72.5216 77.5894 72.3477L79.858 70.8572C80.0716 70.7169 80.1792 70.4611 80.1297 70.2103L78.6498 62.703C78.6339 62.6232 78.6032 62.5476 78.5586 62.4796L72.0656 52.596C71.4428 51.6505 70.2142 51.3154 69.1979 51.8138L51.2497 60.636C50.6716 60.9204 50.2436 61.4392 50.0739 62.0607C49.9045 62.6822 50.01 63.3466 50.3635 63.885L58.2182 75.8418C58.2628 75.9097 58.3201 75.9682 58.3868 76.0144L64.6892 80.3533C64.8999 80.4986 65.1773 80.5015 65.3908 80.3611L68.0192 78.6345C68.2843 78.4603 68.378 78.1162 68.238 77.8318ZM65.0541 79.0781L60.081 75.6544L64.5509 72.718C64.841 72.5273 64.9216 72.1374 64.7309 71.8473L61.4672 66.8791C62.1455 66.078 62.1754 64.9132 61.5392 64.079C60.903 63.2443 59.7717 62.9645 58.82 63.4063C57.868 63.8482 57.3516 64.8927 57.5783 65.9172C57.8054 66.9417 58.7141 67.6708 59.7635 67.6696C59.9853 67.6696 60.2058 67.6364 60.4177 67.5706L63.3357 72.0122L59.0545 74.825L51.4142 63.1944C51.2583 62.9575 51.2117 62.665 51.2865 62.3913C51.361 62.1175 51.5496 61.8892 51.8041 61.764L58.9436 58.2544L61.1481 61.6098C61.3387 61.8999 61.7282 61.9805 62.0183 61.7902L65.3687 59.5891C65.656 59.8345 66.0009 60.0031 66.3707 60.0792C66.5221 60.1107 66.6759 60.1267 66.8306 60.1267C67.8003 60.1258 68.6603 59.5031 68.9635 58.5818C69.2666 57.6604 68.9442 56.6486 68.1644 56.0725C67.3842 55.496 66.3225 55.485 65.5308 56.0455C64.7391 56.6056 64.3962 57.6109 64.6806 58.538L61.8542 60.3947L60.0806 57.6956L69.7523 52.9413C70.1999 52.722 70.7408 52.8697 71.0149 53.2862L74.1002 57.9824L67.1039 62.5786C66.8138 62.7693 66.7328 63.1588 66.9235 63.4489L67.986 65.0666C67.2606 65.9176 67.2712 67.1721 68.011 68.0104C68.7507 68.8487 69.9941 69.0157 70.9286 68.4019C71.863 67.7882 72.2038 66.5809 71.7284 65.5691C71.253 64.5572 70.1058 64.0491 69.0367 64.3768L68.3191 63.284L74.79 59.033L77.44 63.0667L78.8143 70.0385L77.3422 71.0057C75.193 68.8929 71.8606 68.5656 69.3415 70.2206C66.8224 71.8755 65.7996 75.0636 66.8858 77.8752L65.0541 79.0781ZM59.5585 66.3918C59.0627 66.2887 58.7247 65.8276 58.7759 65.3236C58.827 64.8195 59.2505 64.4353 59.7574 64.4341C59.8253 64.4341 59.8932 64.4411 59.9599 64.455C60.4902 64.5699 60.8289 65.0908 60.7189 65.6222C60.6088 66.1537 60.0912 66.497 59.5585 66.3918ZM66.2832 57.0536C66.7398 56.7541 67.3527 56.881 67.653 57.3371C67.9525 57.7937 67.8256 58.407 67.369 58.7069C66.9124 59.0068 66.2995 58.8796 65.9996 58.4234C65.6997 57.9668 65.8266 57.3535 66.2832 57.0536ZM69.6934 65.5339C70.0268 65.5335 70.3382 65.7008 70.5215 65.9798C70.7706 66.3583 70.7309 66.8578 70.4249 67.1925C70.1189 67.5268 69.6246 67.6107 69.2253 67.3959C68.8264 67.1811 68.6239 66.7224 68.7343 66.283C68.8448 65.8432 69.24 65.5347 69.6934 65.5339Z" fill="white"/>
<path d="M52.604 54.2583C52.7946 54.5484 53.1841 54.629 53.4742 54.4388L56.4773 52.4659C56.7674 52.2752 56.848 51.8853 56.6573 51.5957L54.3878 48.1405C53.8158 47.2698 52.6461 47.0276 51.7759 47.5996L50.8749 48.1912C50.0055 48.764 49.7633 49.9325 50.3341 50.8036L52.604 54.2583ZM51.5652 49.2415L52.4661 48.6498C52.568 48.5823 52.6878 48.5463 52.8102 48.5463C52.8535 48.5463 52.8965 48.5508 52.9391 48.5594C53.1027 48.593 53.2459 48.6908 53.3371 48.8303L55.2617 51.7601L53.3089 53.0428L51.3843 50.1129C51.1945 49.8224 51.2755 49.4325 51.5656 49.2419L51.5652 49.2415Z" fill="white"/>
<path d="M57.5828 51.7622C57.7735 52.0523 58.163 52.1329 58.453 51.9422L61.4561 49.9693C61.7462 49.7787 61.8272 49.3892 61.6366 49.0991L59.0704 45.1935C58.4976 44.324 57.3291 44.0822 56.4585 44.6526L55.5576 45.2442C54.6869 45.8162 54.4447 46.9859 55.0167 47.8565L57.5828 51.7622ZM55.9773 46.693C56.0109 46.5297 56.1083 46.3861 56.2482 46.2953L57.1491 45.7036C57.4396 45.513 57.8299 45.5936 58.021 45.8841L60.2414 49.2644L58.2886 50.5471L56.0682 47.1667C55.9757 47.0272 55.943 46.8566 55.9773 46.693Z" fill="white"/>
<path d="M62.621 49.3556C62.8112 49.6457 63.2011 49.7263 63.4912 49.536L66.4939 47.5632C66.784 47.3725 66.865 46.9826 66.6743 46.6925L64.8189 43.8686C64.2469 42.9976 63.0776 42.7558 62.2069 43.3277L61.306 43.9194C60.4366 44.4922 60.1948 45.6607 60.7655 46.5313L62.621 49.3556ZM61.9962 44.9696L62.8971 44.3784C62.999 44.3109 63.1189 44.2749 63.2412 44.2745C63.2846 44.2745 63.328 44.279 63.3701 44.288C63.5338 44.3215 63.677 44.4189 63.7682 44.5589L65.2783 46.8578L63.3263 48.1405L61.8158 45.8415C61.6255 45.5506 61.7061 45.1611 61.9962 44.9696Z" fill="white"/>
<path d="M73.8514 71.263C72.3082 70.9361 70.7076 71.4598 69.6561 72.6365C68.605 73.8128 68.2634 75.462 68.7613 76.9591C69.2588 78.4561 70.5198 79.5727 72.0663 79.8853C72.363 79.947 72.6649 79.9781 72.9677 79.9781C75.2241 79.9736 77.1115 78.2638 77.3393 76.0193C77.5668 73.7743 76.0608 71.7209 73.8514 71.263ZM74.6861 78.2033C73.234 79.1566 71.2845 78.7528 70.3312 77.3011C69.3779 75.8495 69.7817 73.8995 71.2329 72.9462C72.6846 71.9925 74.6341 72.3959 75.5878 73.8472C76.5403 75.2996 76.1365 77.2488 74.6861 78.2037V78.2033Z" fill="white"/>
<path d="M72.0218 74.1479C71.4453 74.5272 71.1536 75.2162 71.2833 75.8941C71.4126 76.572 71.9371 77.1052 72.6126 77.2455C72.7275 77.2696 72.845 77.2815 72.9624 77.2815C73.6919 77.2807 74.34 76.8159 74.5756 76.1257C74.8113 75.435 74.5818 74.6712 74.0049 74.2244C73.4284 73.7776 72.6314 73.7469 72.0218 74.1479ZM73.3993 75.6654C73.356 75.8753 73.1698 76.0254 72.9554 76.0238C72.741 76.0222 72.5577 75.8691 72.5172 75.6584C72.4771 75.4477 72.5913 75.2378 72.7901 75.1572C72.989 75.077 73.2169 75.1478 73.3347 75.327C73.4006 75.4269 73.4239 75.5488 73.3993 75.6654Z" fill="white"/>
<path d="M55.4602 54.1892C54.8837 54.5685 54.592 55.2575 54.7213 55.9354C54.8506 56.6138 55.3755 57.1469 56.0514 57.2872C56.1664 57.3109 56.2834 57.3232 56.4008 57.3232C57.1303 57.322 57.7784 56.8576 58.014 56.167C58.2493 55.4768 58.0202 54.7129 57.4433 54.2661C56.8668 53.8193 56.0698 53.7887 55.4602 54.1896V54.1892ZM56.8382 55.7067C56.7944 55.917 56.6086 56.0667 56.3942 56.0651C56.1794 56.0635 55.9962 55.9105 55.9561 55.6997C55.916 55.489 56.0301 55.2796 56.229 55.199C56.4278 55.1184 56.6557 55.1895 56.7735 55.3688C56.8394 55.4682 56.8623 55.5901 56.8382 55.7067Z" fill="white"/>
<path d="M61.7221 51.448C60.9242 51.2827 60.1211 51.7037 59.8036 52.454C59.4861 53.204 59.7422 54.0738 60.4161 54.5317C61.0899 54.9895 61.9933 54.9077 62.5735 54.3361C63.154 53.7645 63.2498 52.8628 62.8022 52.182C62.5547 51.8027 62.1656 51.5384 61.7221 51.448ZM61.8162 53.2105C61.7728 53.4204 61.5866 53.5706 61.3722 53.5689C61.1579 53.5673 60.9742 53.4143 60.9341 53.2036C60.8936 52.9929 61.0077 52.783 61.2065 52.7024C61.4058 52.6218 61.6337 52.6926 61.7515 52.8722C61.8178 52.9716 61.8411 53.0935 61.8166 53.2105H61.8162Z" fill="white"/>
<path d="M65.2444 49.4387C64.6679 49.818 64.3766 50.5069 64.5059 51.1849C64.6352 51.8628 65.1601 52.3964 65.8356 52.5367C65.9505 52.5604 66.0676 52.5727 66.185 52.5727C66.9149 52.5715 67.563 52.1067 67.7982 51.4165C68.0339 50.7258 67.8044 49.962 67.2279 49.5156C66.651 49.0688 65.854 49.0381 65.2444 49.4387ZM66.5577 50.6182C66.671 50.7905 66.653 51.0176 66.5139 51.1698C66.3748 51.322 66.1502 51.3604 65.9685 51.2626C65.7869 51.1648 65.6944 50.9566 65.7447 50.7565C65.7951 50.5565 65.9743 50.4161 66.1805 50.4157C66.3327 50.4153 66.4742 50.4914 66.5577 50.6182Z" fill="white"/>
<path d="M39.5004 43.6673C39.1003 44.2397 39.088 44.9979 39.4689 45.5834L41.5179 48.7022C41.9025 49.2869 42.605 49.5774 43.2903 49.4354L44.1532 50.7492C43.7506 51.322 43.7387 52.0821 44.1233 52.6672L47.1432 57.2655C47.3338 57.5556 47.7237 57.6362 48.0138 57.4456L51.6184 55.077C51.9084 54.8868 51.9894 54.4969 51.7988 54.2068L48.7785 49.6089C48.3935 49.025 47.6918 48.7346 47.0069 48.8757L46.1428 47.5603C46.5442 46.9879 46.5565 46.2286 46.1735 45.6435L44.109 42.5013C43.724 41.9166 43.0215 41.6253 42.3362 41.7665L41.4422 40.4061C41.5191 40.2322 41.5666 40.0469 41.5826 39.8574C41.6284 39.335 41.4299 38.8207 41.0453 38.4643L39.9619 37.4554C39.9403 37.4353 39.9173 37.4165 39.8932 37.3997C39.1482 36.8797 38.1617 36.8658 37.4024 37.3645C36.643 37.8633 36.2641 38.774 36.4454 39.6643C36.4511 39.6934 36.4593 39.7216 36.4691 39.7494L36.965 41.145C37.1393 41.6396 37.5325 42.0259 38.03 42.1912C38.2059 42.2505 38.39 42.2808 38.5758 42.2812H38.5893L39.5004 43.6673ZM40.5409 41.323L41.2246 42.3638L40.4791 42.8679L39.7889 41.8172L40.5409 41.323ZM45.1588 48.3528L45.8896 49.4653L45.1376 49.9591L44.4068 48.8467L45.1588 48.3528ZM47.7278 50.2995L50.4032 54.3721L47.8489 56.05L45.1736 51.9778C45.0373 51.77 45.095 51.4913 45.3025 51.3547L47.1051 50.1706C47.313 50.0344 47.5916 50.0921 47.7282 50.2995H47.7278ZM42.7707 42.9972C42.8889 43.0205 42.9924 43.0909 43.0583 43.1915L45.1228 46.3337C45.2591 46.5416 45.2014 46.8202 44.994 46.9568L43.1917 48.1413C42.9839 48.2775 42.7048 48.2199 42.5686 48.0124L40.5192 44.8931C40.385 44.6873 40.4402 44.4116 40.6436 44.2733L42.4307 43.0659C42.5301 42.998 42.6529 42.9734 42.7707 42.9972ZM38.149 40.7244L37.6699 39.3755C37.6094 39.0003 37.7747 38.6243 38.0926 38.4156C38.4101 38.207 38.8209 38.2045 39.1412 38.4091L40.1886 39.3845C40.2897 39.4786 40.3416 39.6136 40.3302 39.7515C40.3187 39.8889 40.2447 40.0137 40.1293 40.0894L38.82 40.9494C38.7047 41.0251 38.561 41.0435 38.4301 40.9998C38.2992 40.9556 38.1957 40.8541 38.149 40.724V40.7244Z" fill="white"/>
<path d="M53.3068 72.2511L51.3802 71.8522C50.6667 71.7033 49.9318 71.9803 49.4937 72.5629L47.7237 72.1963L47.815 71.7556C47.8853 71.4156 47.6668 71.0834 47.3269 71.0131L44.8593 70.502C42.1872 69.9497 39.5728 71.6669 39.018 74.339C38.9477 74.6785 39.1661 75.0112 39.5061 75.0815L46.1976 76.4673C46.3609 76.5013 46.5307 76.4689 46.6702 76.3773C46.8097 76.2856 46.9067 76.1424 46.9402 75.9792L47.0315 75.5385L48.803 75.9051C48.9749 76.6121 49.5383 77.1575 50.2506 77.306L52.1772 77.7049C52.5172 77.7753 52.8498 77.5568 52.9202 77.2168L53.7945 72.9933C53.8649 72.6533 53.6464 72.3211 53.3068 72.2503V72.2511ZM45.8372 75.1094L40.4283 73.9895C41.0875 72.3227 42.8488 71.3706 44.6044 71.7327L46.4566 72.1165L45.8372 75.1094ZM47.4688 73.427L49.0596 73.7563L48.8771 74.6376L47.2863 74.3083L47.4688 73.427ZM51.8168 76.3474L50.5055 76.0757C50.1655 76.005 49.947 75.6723 50.0169 75.3323L50.3811 73.5718C50.4515 73.2318 50.7845 73.0129 51.1249 73.0833L52.4362 73.3542L51.8168 76.3474Z" fill="white"/>
<path d="M55.9393 73.8971C55.0158 73.706 54.1121 74.2997 53.921 75.2231C53.7299 76.1465 54.3236 77.0499 55.247 77.241C56.1704 77.4321 57.0738 76.838 57.2649 75.9146C57.3594 75.4711 57.2727 75.0079 57.0235 74.629C56.7743 74.2498 56.3836 73.9863 55.9393 73.8971ZM56.0334 75.6597C55.9855 75.8912 55.7662 76.0459 55.5322 76.014C55.2981 75.9821 55.1284 75.7742 55.1443 75.5386C55.1599 75.3025 55.3554 75.1192 55.5919 75.1188C55.623 75.1188 55.6537 75.1216 55.684 75.1282C55.9274 75.1785 56.0837 75.4166 56.0334 75.6597Z" fill="white"/>
<path d="M51.4354 56.5283C50.6376 56.363 49.8345 56.7844 49.5166 57.5343C49.1991 58.2843 49.4556 59.1541 50.1291 59.612C50.8029 60.0698 51.7063 59.988 52.2865 59.4168C52.867 58.8452 52.9628 57.9431 52.5156 57.2627C52.2681 56.8834 51.879 56.6187 51.4354 56.5283ZM51.5296 58.2908C51.4813 58.522 51.2624 58.6767 51.0284 58.6447C50.7943 58.6128 50.6249 58.405 50.6405 58.1693C50.6564 57.9337 50.852 57.7504 51.0881 57.7495C51.1192 57.7495 51.1499 57.7528 51.1801 57.759C51.4236 57.8097 51.5799 58.0474 51.5296 58.2908Z" fill="white"/>
<path d="M83.429 78.1358L79.5851 72.2834C79.3945 71.9934 79.0046 71.9128 78.7145 72.1034L77.8888 72.6459C77.6241 72.8198 77.5304 73.1639 77.6704 73.4483C78.8106 75.7751 78.0419 78.5867 75.8763 80.0092C73.7107 81.4318 70.825 81.0211 69.1422 79.0506C68.9368 78.8092 68.5838 78.7585 68.3186 78.9328L67.5818 79.4168C67.2917 79.6071 67.2111 79.997 67.4013 80.2871L71.246 86.1394C71.8258 87.0203 73.009 87.2654 73.8907 86.6868L82.8816 80.7805C83.7629 80.2011 84.0079 79.0171 83.429 78.1358ZM82.1914 79.7302L73.2009 85.6366C72.8994 85.8342 72.4947 85.7503 72.2963 85.4492L69.3104 80.904C71.5107 82.4878 74.4696 82.514 76.6974 80.9691C78.9252 79.4246 79.9386 76.6441 79.2267 74.0284L82.3783 78.826C82.5759 79.1275 82.4925 79.5318 82.1918 79.7302H82.1914Z" fill="white"/>
</g>
<defs>
<clipPath id="clip0">
<rect x="35" y="37" width="50" height="50" fill="white"/>
</clipPath>
</defs>
</svg>
