<svg width="121" height="121" viewBox="0 0 121 121" fill="none" xmlns="http://www.w3.org/2000/svg">
<circle cx="60.5" cy="60.5" r="47.5" fill="#3F3359"/>
<circle cx="60.5" cy="60.5" r="59.5" stroke="#9FCE0D" stroke-width="2" stroke-dasharray="2 2"/>
<g clip-path="url(#clip0)">
<path d="M82 69.4017C82 68.0123 80.8698 66.8821 79.4805 66.8821H73.098V63.6907C73.098 63.2269 72.722 62.8509 72.2581 62.8509H61.3402V60.8353H71.3943C75.1133 60.8353 78.139 57.8115 78.139 54.0945C78.139 50.4842 75.2842 47.5277 71.7126 47.3614C71.2736 45.7463 70.4748 44.2356 69.3791 42.9581C68.1432 41.5176 66.5567 40.4021 64.7901 39.7326C64.3564 39.5682 63.8715 39.7864 63.7072 40.2201C63.5428 40.6541 63.761 41.1386 64.1947 41.3033C67.2568 42.464 69.5687 45.1735 70.2284 48.3741C70.3124 48.7822 70.6821 49.067 71.0988 49.043C71.2123 49.0365 71.3064 49.0335 71.3943 49.0335C74.1872 49.0335 76.4593 51.304 76.4593 54.0945C76.4593 56.8854 74.1872 59.1559 71.3943 59.1559H47.9332C46.0632 59.1559 44.5417 57.6357 44.5417 55.767C44.5417 54.3806 45.373 53.1477 46.6593 52.6261C47.0402 52.4719 47.2534 52.0648 47.1632 51.6639C47.1078 51.4172 47.0799 51.1662 47.0799 50.9179C47.0799 49.0492 48.6011 47.529 50.4711 47.529C50.5866 47.529 50.7083 47.5359 50.8329 47.549C51.2158 47.5897 51.5767 47.365 51.7095 47.0034C52.6757 44.374 54.7326 42.2964 57.3526 41.303C57.7863 41.1386 58.0047 40.6538 57.8401 40.2201C57.6757 39.7864 57.1911 39.5679 56.7571 39.7326C53.8747 40.8253 51.5731 43.0362 50.3615 45.8506C47.6159 45.9093 45.4002 48.1599 45.4002 50.9179C45.4002 51.0662 45.4068 51.2151 45.4199 51.3637C43.8468 52.2571 42.862 53.921 42.862 55.767C42.862 58.5618 45.1371 60.8353 47.9332 60.8353H59.6608V62.8509H48.7642C48.3006 62.8509 47.9243 63.2269 47.9243 63.6907V66.8821H41.5195C40.1302 66.8821 39 68.0123 39 69.4017V72.7611C39 73.4057 39.2438 73.9946 39.6437 74.4404C39.2438 74.8866 39 75.4755 39 76.1201V79.4795C39 80.8688 40.1302 81.999 41.5195 81.999H55.9645C57.3535 81.999 58.484 80.8688 58.484 79.4795V76.1201C58.484 75.4755 58.2403 74.8866 57.8404 74.4404C58.2403 73.9946 58.484 73.4057 58.484 72.7611V69.4017C58.484 68.0123 57.3535 66.8821 55.9645 66.8821H49.604V64.5306H71.4183V66.8821H65.0355C63.6465 66.8821 62.516 68.0123 62.516 69.4017V72.7611C62.516 73.4057 62.7597 73.9946 63.1596 74.4404C62.7597 74.8866 62.516 75.4755 62.516 76.1201V79.4795C62.516 80.8688 63.6465 81.999 65.0355 81.999H79.4805C80.8698 81.999 82 80.8688 82 79.4795V76.1201C82 75.4755 81.7562 74.8866 81.3563 74.4404C81.7562 73.9946 82 73.4057 82 72.7611V69.4017ZM56.8044 79.4795C56.8044 79.9427 56.4274 80.3193 55.9645 80.3193H41.5195C41.0563 80.3193 40.6797 79.9427 40.6797 79.4795V76.1201C40.6797 75.6572 41.0563 75.2803 41.5195 75.2803H55.9645C56.4274 75.2803 56.8044 75.6572 56.8044 76.1201V79.4795ZM56.8044 69.4017V72.7611C56.8044 73.224 56.4274 73.6009 55.9645 73.6009H41.5195C41.0563 73.6009 40.6797 73.224 40.6797 72.7611V69.4017C40.6797 68.9385 41.0563 68.5618 41.5195 68.5618H55.9645C56.4274 68.5618 56.8044 68.9385 56.8044 69.4017ZM64.1956 69.4017C64.1956 68.9385 64.5726 68.5618 65.0355 68.5618H79.4805C79.9437 68.5618 80.3203 68.9385 80.3203 69.4017V72.7611C80.3203 73.224 79.9437 73.6009 79.4805 73.6009H65.0355C64.5726 73.6009 64.1956 73.224 64.1956 72.7611V69.4017ZM80.3203 79.4795C80.3203 79.9427 79.9437 80.3193 79.4805 80.3193H65.0355C64.5726 80.3193 64.1956 79.9427 64.1956 79.4795V76.1201C64.1956 75.6572 64.5726 75.2803 65.0355 75.2803H79.4805C79.9437 75.2803 80.3203 75.6572 80.3203 76.1201V79.4795Z" fill="white"/>
<path d="M66.7152 71.9212C66.936 71.9212 67.1528 71.8313 67.309 71.6752C67.4652 71.5187 67.5551 71.3022 67.5551 71.0814C67.5551 70.8603 67.4652 70.6438 67.309 70.4876C67.1528 70.3314 66.936 70.2415 66.7152 70.2415C66.4944 70.2415 66.2776 70.3314 66.1214 70.4876C65.9653 70.6438 65.8754 70.8603 65.8754 71.0814C65.8754 71.3022 65.9653 71.5187 66.1214 71.6752C66.2776 71.8313 66.4944 71.9212 66.7152 71.9212Z" fill="white"/>
<path d="M69.842 71.9212C70.0628 71.9212 70.2793 71.8313 70.4358 71.6752C70.5919 71.5187 70.6818 71.3022 70.6818 71.0814C70.6818 70.8603 70.5919 70.6438 70.4358 70.4876C70.2793 70.3314 70.0628 70.2415 69.842 70.2415C69.6209 70.2415 69.4043 70.3314 69.2482 70.4876C69.092 70.6438 69.0021 70.8603 69.0021 71.0814C69.0021 71.3022 69.092 71.5187 69.2482 71.6752C69.4043 71.8313 69.6209 71.9212 69.842 71.9212Z" fill="white"/>
<path d="M73.6199 71.9212H77.8008C78.2647 71.9212 78.6406 71.5453 78.6406 71.0814C78.6406 70.6175 78.2647 70.2415 77.8008 70.2415H73.6199C73.1561 70.2415 72.7801 70.6175 72.7801 71.0814C72.7801 71.5453 73.1561 71.9212 73.6199 71.9212Z" fill="white"/>
<path d="M66.7152 76.96C66.4944 76.96 66.2776 77.0499 66.1214 77.206C65.9653 77.3622 65.8754 77.579 65.8754 77.7998C65.8754 78.0206 65.9653 78.2374 66.1214 78.3936C66.2776 78.5498 66.4944 78.6396 66.7152 78.6396C66.936 78.6396 67.1528 78.5498 67.309 78.3936C67.4652 78.2374 67.5551 78.0206 67.5551 77.7998C67.5551 77.579 67.4652 77.3622 67.309 77.206C67.1528 77.0499 66.936 76.96 66.7152 76.96Z" fill="white"/>
<path d="M69.842 76.96C69.6209 76.96 69.4043 77.0499 69.2482 77.206C69.092 77.3622 69.0021 77.579 69.0021 77.7998C69.0021 78.0206 69.092 78.2374 69.2482 78.3936C69.4043 78.5498 69.6209 78.6396 69.842 78.6396C70.0628 78.6396 70.2793 78.5498 70.4358 78.3936C70.5919 78.2374 70.6818 78.0206 70.6818 77.7998C70.6818 77.579 70.5919 77.3622 70.4358 77.206C70.2793 77.0499 70.0628 76.96 69.842 76.96Z" fill="white"/>
<path d="M77.8008 76.96H73.6199C73.1561 76.96 72.7801 77.3359 72.7801 77.7998C72.7801 78.2637 73.1561 78.6396 73.6199 78.6396H77.8008C78.2647 78.6396 78.6406 78.2637 78.6406 77.7998C78.6406 77.3359 78.2647 76.96 77.8008 76.96Z" fill="white"/>
<path d="M43.1992 70.2415C42.9784 70.2415 42.7616 70.3314 42.6054 70.4876C42.4493 70.6438 42.3594 70.8603 42.3594 71.0814C42.3594 71.3022 42.4493 71.5187 42.6054 71.6752C42.7616 71.8313 42.9774 71.9212 43.1992 71.9212C43.42 71.9212 43.6369 71.8313 43.793 71.6752C43.9492 71.5187 44.0391 71.3022 44.0391 71.0814C44.0391 70.8603 43.9492 70.6438 43.793 70.4876C43.6369 70.3314 43.42 70.2415 43.1992 70.2415Z" fill="white"/>
<path d="M46.326 70.2415C46.1049 70.2415 45.8884 70.3314 45.7322 70.4876C45.576 70.6438 45.4861 70.8603 45.4861 71.0814C45.4861 71.3022 45.576 71.5187 45.7322 71.6752C45.8884 71.8313 46.1042 71.9212 46.326 71.9212C46.5468 71.9212 46.7633 71.8313 46.9195 71.6752C47.0759 71.5187 47.1658 71.3022 47.1658 71.0814C47.1658 70.8603 47.0759 70.6438 46.9195 70.4876C46.7633 70.3314 46.5468 70.2415 46.326 70.2415Z" fill="white"/>
<path d="M50.1037 71.9212H54.2848C54.7487 71.9212 55.1247 71.5453 55.1247 71.0814C55.1247 70.6175 54.7487 70.2415 54.2848 70.2415H50.1037C49.6398 70.2415 49.2638 70.6175 49.2638 71.0814C49.2638 71.5453 49.6398 71.9212 50.1037 71.9212Z" fill="white"/>
<path d="M43.1992 76.96C42.9774 76.96 42.7616 77.0499 42.6054 77.206C42.4493 77.3622 42.3594 77.579 42.3594 77.7998C42.3594 78.0206 42.4493 78.2374 42.6054 78.3936C42.7616 78.5498 42.9774 78.6396 43.1992 78.6396C43.42 78.6396 43.6369 78.5498 43.793 78.3936C43.9492 78.2374 44.0391 78.0206 44.0391 77.7998C44.0391 77.579 43.9492 77.3622 43.793 77.206C43.6369 77.0499 43.42 76.96 43.1992 76.96Z" fill="white"/>
<path d="M46.326 76.96C46.1049 76.96 45.8884 77.0499 45.7322 77.206C45.576 77.3622 45.4861 77.579 45.4861 77.7998C45.4861 78.0206 45.576 78.2374 45.7322 78.3936C45.8884 78.5498 46.1049 78.6396 46.326 78.6396C46.5468 78.6396 46.7633 78.5498 46.9195 78.3936C47.0759 78.2374 47.1658 78.0206 47.1658 77.7998C47.1658 77.579 47.0759 77.3622 46.9195 77.206C46.7633 77.0499 46.5468 76.96 46.326 76.96Z" fill="white"/>
<path d="M54.2848 76.96H50.1037C49.6398 76.96 49.2638 77.3359 49.2638 77.7998C49.2638 78.2637 49.6398 78.6396 50.1037 78.6396H54.2848C54.7487 78.6396 55.1247 78.2637 55.1247 77.7998C55.1247 77.3359 54.7487 76.96 54.2848 76.96Z" fill="white"/>
<path d="M60.7736 40.6797C60.9944 40.6797 61.2109 40.5898 61.3671 40.4336C61.5236 40.2775 61.6131 40.0606 61.6131 39.8398C61.6131 39.6191 61.5236 39.4022 61.3671 39.246C61.2109 39.0899 60.9944 39 60.7736 39C60.5525 39 60.336 39.0899 60.1798 39.246C60.0233 39.4022 59.9338 39.6191 59.9338 39.8398C59.9338 40.0606 60.0233 40.2775 60.1798 40.4336C60.336 40.5898 60.5525 40.6797 60.7736 40.6797Z" fill="white"/>
</g>
<defs>
<clipPath id="clip0">
<rect x="39" y="39" width="43" height="43" fill="white"/>
</clipPath>
</defs>
</svg>
