<svg width="121" height="121" viewBox="0 0 121 121" fill="none" xmlns="http://www.w3.org/2000/svg">
<circle cx="60.5" cy="60.5" r="47.5" fill="#3F3359"/>
<circle cx="60.5" cy="60.5" r="59.5" stroke="#9FCE0D" stroke-width="2" stroke-dasharray="2 2"/>
<path d="M51.3879 63.6H42.8787C42.4001 63.6 42.0121 63.988 42.0121 64.4666C42.0121 64.9453 42.4001 65.3333 42.8787 65.3333H51.3879C51.6178 65.3334 51.8383 65.2421 52.0009 65.0795C52.1634 64.917 52.2547 64.6965 52.2547 64.4665C52.2548 64.2367 52.1635 64.0162 52.0009 63.8536C51.8384 63.6912 51.6179 63.5999 51.3879 63.6Z" fill="white"/>
<path d="M43.6667 61.8666C43.8965 61.8667 44.117 61.7754 44.2796 61.6128C44.4421 61.4503 44.5334 61.2298 44.5334 60.9999V59.2665C44.5334 58.7879 44.1454 58.3999 43.6668 58.3999C43.1882 58.3999 42.8002 58.7879 42.8002 59.2665V61C42.8001 61.2298 42.8914 61.4503 43.054 61.6129C43.2164 61.7754 43.4369 61.8667 43.6667 61.8666Z" fill="white"/>
<path d="M50.5999 61.8666C50.8298 61.8667 51.0503 61.7754 51.2129 61.6128C51.3754 61.4503 51.4667 61.2298 51.4667 60.9999V59.2665C51.4667 58.7879 51.0786 58.3999 50.6 58.3999C50.1214 58.3999 49.7334 58.7879 49.7334 59.2665V61C49.7333 61.2298 49.8246 61.4503 49.9872 61.6129C50.1496 61.7754 50.3701 61.8667 50.5999 61.8666Z" fill="white"/>
<path d="M53.2 68.8C54.6353 68.7985 55.7985 67.6353 55.8 66.2V66.1124C57.8175 65.7006 59.2666 63.9259 59.2666 61.8667C59.2666 59.8075 57.8175 58.0328 55.8 57.621V57.5335C55.7985 56.0982 54.6353 54.935 53.2 54.9335H48.8665L50.2535 53.8933C50.4373 53.7554 50.5589 53.5503 50.5915 53.3228C50.624 53.0953 50.5649 52.8642 50.427 52.6804L49.2963 51.1724C50.0533 50.084 49.9106 48.6075 48.9594 47.6841C48.0081 46.7607 46.5282 46.662 45.4627 47.4508C44.3972 48.2397 44.0597 49.6841 44.6653 50.8634C45.2709 52.0428 46.6414 52.6101 47.9033 52.2039L48.5203 53.0266L45.9781 54.9335H41.0666C39.6314 54.935 38.4682 56.0982 38.4666 57.5335V57.621C36.4491 58.0327 35 59.8075 35 61.8666C35 63.9258 36.4491 65.7005 38.4666 66.1123V66.1999C38.4682 67.6352 39.6314 68.7984 41.0666 68.7999H43.6666V72.2665H38.4666C36.5529 72.2687 35.002 73.8196 35 75.7334V84.4C35.0011 85.3568 35.7764 86.1322 36.7334 86.1334H38.7078C39.0151 86.6678 39.5836 86.998 40.2 87H54.0666C55.0235 86.9989 55.7989 86.2235 55.8 85.2666H57.5334C58.4902 85.2655 59.2656 84.4902 59.2667 83.5333V75.7333C59.2647 73.8195 57.7138 72.2687 55.8001 72.2666H50.6001V68.8H53.2ZM55.8 59.4148C56.8388 59.7824 57.5333 60.7648 57.5333 61.8667C57.5333 62.9687 56.8389 63.951 55.8 64.3187V59.4148ZM47.1334 50.6C46.6547 50.6 46.2667 50.2119 46.2667 49.7334C46.2667 49.2548 46.6547 48.8667 47.1334 48.8667C47.612 48.8667 48 49.2547 48 49.7334C47.9995 50.2118 47.6118 50.5995 47.1334 50.6ZM38.4666 64.3185C37.4279 63.951 36.7334 62.9686 36.7334 61.8666C36.7334 60.7647 37.4277 59.7824 38.4666 59.4147V64.3185ZM38.4666 84.4H36.7334V75.7334C36.7345 74.7765 37.5099 74.0011 38.4667 74V84.4H38.4666ZM55.8 74C56.7568 74.0011 57.5323 74.7765 57.5334 75.7334V83.5334H55.8V74ZM50.6 85.2666H43.6666V77.4666H50.6V85.2666ZM54.0666 74L54.0678 84.3942L54.0666 84.4L54.0678 84.4058L54.0679 85.2666H52.3333V77.4666C52.3321 76.5098 51.5567 75.7344 50.5999 75.7333H43.6666C42.7098 75.7344 41.9344 76.5097 41.9333 77.4666V85.2666H40.2V74H54.0666ZM45.4 72.2666V68.8H48.8666V72.2666H45.4ZM41.0666 67.0666C40.5882 67.0661 40.2004 66.6785 40.2 66.2V57.5334C40.2005 57.0549 40.5882 56.6671 41.0666 56.6667H53.2C53.6785 56.6672 54.0662 57.0549 54.0666 57.5334V66.2C54.0661 66.6785 53.6785 67.0662 53.2 67.0666H41.0666Z" fill="white"/>
<path d="M71.0094 40.2102C67.9412 40.0795 64.9527 41.2074 62.7359 43.3325C60.519 45.4576 59.2659 48.3957 59.2667 51.4666C59.2521 55.026 60.932 58.3799 63.7913 60.4998C64.7398 61.1731 65.3122 62.2567 65.3333 63.4197V64.6264C64.5136 64.9101 63.8918 65.5872 63.6789 66.428C63.466 67.2688 63.6905 68.1604 64.2763 68.8C63.5837 69.5591 63.4058 70.656 63.8227 71.5951C64.2396 72.5343 65.1726 73.1378 66.2001 73.1334H66.2876C66.6994 75.1509 68.4742 76.6 70.5333 76.6C72.5925 76.6 74.3672 75.1509 74.7791 73.1334H74.8666C75.8941 73.1378 76.8271 72.5343 77.244 71.5951C77.6609 70.656 77.483 69.5592 76.7904 68.8C77.3762 68.1604 77.6008 67.2688 77.3878 66.428C77.1748 65.5872 76.5529 64.9101 75.7333 64.6264V63.4155C75.7458 62.266 76.3068 61.1916 77.2428 60.5243C81.0779 57.6805 82.7051 52.7289 81.3046 48.1644C79.904 43.6002 75.7794 40.4135 71.0094 40.2102ZM70.5333 74.8666C69.4351 74.8633 68.4579 74.1691 68.0931 73.1333H72.9737C72.6088 74.1692 71.6315 74.8633 70.5333 74.8666ZM74.8666 71.4H66.2C65.7213 71.4 65.3333 71.012 65.3333 70.5334C65.3333 70.0547 65.7213 69.6667 66.2 69.6667H74.8666C75.3453 69.6667 75.7332 70.0547 75.7332 70.5334C75.7332 71.012 75.3453 71.4 74.8666 71.4ZM74.8666 67.9334H66.2C65.7213 67.9334 65.3333 67.5454 65.3333 67.0667C65.3333 66.5881 65.7213 66.2001 66.2 66.2001H74.8666C75.3453 66.2001 75.7332 66.5881 75.7332 67.0667C75.7332 67.5454 75.3453 67.9334 74.8666 67.9334ZM76.209 59.133C74.8306 60.1255 74.0097 61.717 74 63.4156V64.4667H67.0666V63.4198C67.0479 61.71 66.2177 60.1109 64.8301 59.1119C61.4771 56.6099 60.1464 52.2146 61.5487 48.273C62.9509 44.3314 66.7585 41.7641 70.9383 41.9418C74.9745 42.1152 78.4636 44.8126 79.6479 48.6751C80.8321 52.5375 79.4544 56.7271 76.209 59.133Z" fill="white"/>
<path d="M70.5334 38.4666C71.012 38.4666 71.4 38.0786 71.4 37.6V35.8666C71.4 35.388 71.012 35 70.5334 35C70.0547 35 69.6667 35.388 69.6667 35.8666V37.6C69.6666 38.0787 70.0547 38.4666 70.5334 38.4666Z" fill="white"/>
<path d="M80.9515 39.8234L79.7255 41.049C79.5065 41.2679 79.4211 41.5869 79.5012 41.886C79.5814 42.185 79.815 42.4186 80.114 42.4988C80.413 42.5789 80.7321 42.4934 80.951 42.2745L82.177 41.049C82.5154 40.7106 82.5154 40.1619 82.177 39.8234C81.8385 39.485 81.2899 39.485 80.9515 39.8234Z" fill="white"/>
<path d="M60.1155 42.2744C60.4539 42.6128 61.0026 42.6128 61.3411 42.2744C61.6795 41.936 61.6795 41.3874 61.3411 41.0489L60.1151 39.8233C59.7767 39.4849 59.228 39.4849 58.8895 39.8233C58.5511 40.1617 58.5511 40.7104 58.8895 41.0489L60.1155 42.2744Z" fill="white"/>
<path d="M86.1334 50.6H84.4001C83.9214 50.6 83.5334 50.988 83.5334 51.4666C83.5334 51.9453 83.9214 52.3333 84.4001 52.3333H86.1334C86.6121 52.3333 87.0001 51.9453 87.0001 51.4666C87.0001 50.988 86.6121 50.6 86.1334 50.6Z" fill="white"/>
<path d="M54.9333 52.3334H56.6667C57.1453 52.3334 57.5333 51.9454 57.5333 51.4667C57.5333 50.9881 57.1452 50.6001 56.6667 50.6001H54.9333C54.4546 50.6001 54.0667 50.9881 54.0667 51.4667C54.0667 51.9454 54.4546 52.3334 54.9333 52.3334Z" fill="white"/>
<path d="M70.5334 43.6666C67.7498 43.674 65.1792 45.158 63.7808 47.5649C63.5407 47.9792 63.6819 48.5096 64.0961 48.7498C64.5102 48.9897 65.0403 48.8489 65.2806 48.435C66.3677 46.5617 68.3676 45.4061 70.5335 45.3999C71.0122 45.3999 71.4002 45.0118 71.4002 44.5333C71.4001 44.0547 71.0121 43.6666 70.5334 43.6666Z" fill="white"/>
<path d="M64.4667 51.4666C64.4667 50.988 64.0787 50.6 63.6 50.6C63.1214 50.6 62.7334 50.988 62.7334 51.4666C62.7334 51.7922 62.7536 52.1177 62.7939 52.4407C62.8481 52.8739 63.216 53.1993 63.6525 53.1999C63.6889 53.1997 63.7252 53.1975 63.7613 53.1931C64.2361 53.1337 64.573 52.7006 64.5137 52.2257C64.4824 51.974 64.4667 51.7204 64.4667 51.4666Z" fill="white"/>
</svg>
