<svg width="121" height="121" viewBox="0 0 121 121" fill="none" xmlns="http://www.w3.org/2000/svg">
<circle cx="60.5" cy="60.5" r="47.5" fill="#3F3359"/>
<circle cx="60.5" cy="60.5" r="59.5" stroke="#9FCE0D" stroke-width="2" stroke-dasharray="2 2"/>
<g clip-path="url(#clip0)">
<path d="M42.2391 49.8366H40.8799V46.997H44.4396V48.3559H42.2391V49.8366Z" fill="white"/>
<path d="M40.8799 54.1568H42.2391V55.5968H40.8799V54.1568Z" fill="white"/>
<path d="M79.7609 57.0367H81.1201V58.4766H79.7609V57.0367Z" fill="white"/>
<path d="M42.9996 77.9576H79.0003V79.3169H42.9996V77.9576Z" fill="white"/>
<path d="M84 44.1171H68.8796V39.7969H53.1205V44.1171H48.7599V45.476H82.6408V59.9573H68.2002V61.3162H81.2009V65.6768H82.5601V61.3162H84V44.1171ZM54.4794 41.1561H67.5207V44.1171H54.4794V41.1561Z" fill="white"/>
<path d="M81.2008 79.7135L79.5145 80.8376H42.4855L40.7992 79.7135V61.3162H53.7999V59.9573H39.3592V45.476H46.5997V44.1171H38V61.3162H39.44V80.441L42.0739 82.1968H79.9261L82.56 80.441V67.8369H81.2008V79.7135Z" fill="white"/>
<path d="M40.8799 51.2765H42.2391V52.7168H40.8799V51.2765Z" fill="white"/>
<path d="M76.8806 57.0367H78.2399V58.4766H76.8806V57.0367Z" fill="white"/>
<path d="M79.7609 54.1568H81.1201V55.5968H79.7609V54.1568Z" fill="white"/>
<path d="M42.9996 74.3576H44.4396V75.7168H42.9996V74.3576Z" fill="white"/>
<path d="M77.5604 74.3576H79.0004V75.7168H77.5604V74.3576Z" fill="white"/>
<path d="M56.545 71.3966L50.1998 62.3319L43.8546 71.3966H47.3603V74.3576H45.8796V75.7168H76.1205V74.3576H74.6398V71.3966H78.1454L71.8002 62.3319L65.455 71.3966H68.9607V74.3576H63.8396V56.9963H67.3452L61 47.9316L54.6548 56.9963H58.1601V74.3576H53.0394V71.3966H56.545ZM70.3199 71.3966H71.8002V70.0374H68.0654L71.8002 64.7018L75.5351 70.0374H73.2809V74.3576H70.3199V71.3966ZM59.5194 56.9963H61V55.6371H57.2652L61 50.3016L64.7349 55.6371H62.4803V74.3576H59.5194V56.9963ZM48.7192 74.3576V71.3966H50.1998V70.0374H46.465L50.1998 64.7018L53.9347 70.0374H51.6801V74.3576H48.7192Z" fill="white"/>
</g>
<defs>
<clipPath id="clip0">
<rect width="46" height="46" fill="white" transform="translate(38 38)"/>
</clipPath>
</defs>
</svg>
