<svg width="121" height="121" viewBox="0 0 121 121" fill="none" xmlns="http://www.w3.org/2000/svg">
<circle cx="60.5" cy="60.5" r="47.5" fill="#3F3359"/>
<circle cx="60.5" cy="60.5" r="59.5" stroke="#9FCE0D" stroke-width="2" stroke-dasharray="2 2"/>
<g clip-path="url(#clip0)">
<path d="M62.3756 77.5488H58.6664C58.2026 77.5488 57.8265 77.9249 57.8265 78.3887C57.8265 78.8524 58.2026 79.2285 58.6664 79.2285H62.3756C62.8394 79.2285 63.2155 78.8524 63.2155 78.3887C63.2155 77.9249 62.8395 77.5488 62.3756 77.5488Z" fill="white"/>
<path d="M69.1562 45.3258C69.0001 45.1697 68.7834 45.0797 68.5626 45.0797C68.3417 45.0797 68.125 45.1696 67.9688 45.3258C67.8126 45.482 67.7227 45.6987 67.7227 45.9196C67.7227 46.1414 67.8125 46.3571 67.9688 46.5133C68.125 46.6704 68.3417 46.7594 68.5626 46.7594C68.7834 46.7594 69 46.6705 69.1562 46.5133C69.3125 46.3571 69.4024 46.1404 69.4024 45.9196C69.4024 45.6987 69.3125 45.4828 69.1562 45.3258Z" fill="white"/>
<path d="M81.1602 51.9321C81.6239 51.9321 82 51.556 82 51.0923V45.9193C82 45.5915 81.8116 45.3081 81.5376 45.1699C81.5335 45.1676 81.5298 45.1653 81.5252 45.163L68.9276 39.083C68.697 38.9717 68.4281 38.9717 68.1975 39.083L55.5998 45.163C55.3096 45.3031 55.1251 45.597 55.1251 45.9193C55.1251 46.2417 55.3096 46.5356 55.5998 46.6757L60.5097 49.0453V54.2398C60.5097 54.2792 60.5129 54.318 60.5183 54.3563H60.2849C58.7418 54.3563 57.4863 55.6118 57.4863 57.155C57.4863 58.6982 58.7418 59.9536 60.2849 59.9536H60.5562C60.8114 62.3343 62.1081 64.4074 63.9805 65.7077H56.1567C55.6652 65.7077 55.2006 65.8247 54.7891 66.0322V53.6378C54.7891 52.8837 55.4027 52.2702 56.1567 52.2702H58.3261C58.7899 52.2702 59.166 51.8942 59.166 51.4304C59.166 50.9666 58.7899 50.5906 58.3261 50.5906H56.1567C55.2886 50.5906 54.5049 50.956 53.9493 51.5403C53.3937 50.956 52.61 50.5906 51.7419 50.5906H39.8398C39.3761 50.5906 39 50.9666 39 51.4304V66.5476V69.8242C39 70.2879 39.3761 70.664 39.8398 70.664H40.8474V74.7769H39.8398C39.3761 74.7769 39 75.153 39 75.6167V77.1284C39 79.8143 41.1852 81.9995 43.8711 81.9995H77.1289C79.8148 81.9995 82 79.8143 82 77.1284V75.6167C82 75.153 81.6239 74.7769 81.1602 74.7769H80.1521V62.4312C80.1521 61.9674 79.776 61.5913 79.3122 61.5913C78.8485 61.5913 78.4724 61.9674 78.4724 62.4312V74.7769H42.5271V70.6639H68.0586C68.5224 70.6639 68.8984 70.2878 68.8984 69.8241V67.1348C72.8945 66.9699 76.1481 63.8796 76.5689 59.9536H76.8402C78.3833 59.9536 79.6388 58.6982 79.6388 57.155C79.6388 55.6118 78.3833 54.3563 76.8402 54.3563H76.6068C76.6121 54.318 76.6153 54.2792 76.6153 54.2398V49.0453L80.3203 47.2572V51.0923C80.3203 51.5561 80.6964 51.9321 81.1602 51.9321ZM60.5097 58.274H60.2848C59.6679 58.274 59.1659 57.7721 59.1659 57.1551C59.1659 56.5381 59.6679 56.0361 60.2848 56.0361H60.5097V58.274ZM40.6797 52.2702H51.7419C52.496 52.2702 53.1094 52.8838 53.1094 53.6378V66.0322C52.6979 65.8246 52.2332 65.7077 51.7419 65.7077H40.6797V52.2702ZM80.3203 76.4566V77.1284C80.3203 78.8882 78.8886 80.3198 77.1289 80.3198H43.8711C42.1114 80.3198 40.6797 78.8882 40.6797 77.1284V76.4566H80.3203ZM40.6797 68.9842V67.3874H51.7419C52.496 67.3874 53.1094 68.0009 53.1094 68.7549C53.1094 68.8346 53.1212 68.9113 53.1419 68.9842H40.6797V68.9842ZM76.6153 56.036H76.8402C77.4571 56.036 77.9591 56.5381 77.9591 57.155C77.9591 57.7721 77.4571 58.274 76.8402 58.274H76.6153V56.036ZM67.2188 68.9844H54.7566V68.9843C54.7773 68.9113 54.7891 68.8346 54.7891 68.755C54.7891 68.0009 55.4026 67.3875 56.1566 67.3875H67.2188V68.9844ZM74.9355 59.0895C74.9357 62.6038 72.0767 65.4628 68.5625 65.4628C65.0483 65.4628 62.1893 62.6038 62.1893 59.0895V55.5269L68.2242 58.182C68.332 58.2294 68.4472 58.2531 68.5624 58.2531C68.6776 58.2531 68.7929 58.2294 68.9006 58.182L74.9355 55.5269V59.0895V59.0895ZM74.9357 53.6918L68.5625 56.4957L62.1893 53.6918V49.856L68.1974 52.7557C68.3127 52.8114 68.4376 52.8392 68.5625 52.8392C68.6874 52.8392 68.8123 52.8114 68.9276 52.7557L74.9357 49.856V53.6918ZM70.9246 46.7592H77.4878L68.5625 51.0668L57.8971 45.9194L68.5625 40.7719L77.4878 45.0795H70.9246C70.4608 45.0795 70.0847 45.4556 70.0847 45.9193C70.0847 46.3832 70.4608 46.7592 70.9246 46.7592Z" fill="white"/>
<path d="M81.7538 54.2448C81.5977 54.0887 81.381 53.9988 81.1602 53.9988C80.9393 53.9988 80.7226 54.0886 80.5664 54.2448C80.4102 54.4011 80.3203 54.6177 80.3203 54.8386C80.3203 55.0595 80.4101 55.2762 80.5664 55.4324C80.7226 55.5885 80.9393 55.6785 81.1602 55.6785C81.381 55.6785 81.5977 55.5886 81.7538 55.4324C81.9101 55.2762 82 55.0595 82 54.8386C82 54.6177 81.9101 54.4011 81.7538 54.2448Z" fill="white"/>
<path d="M50.2438 60.4101C50.0867 60.2539 49.8709 60.1641 49.65 60.1641C49.4291 60.1641 49.2125 60.2538 49.0563 60.4101C48.8993 60.5672 48.8102 60.783 48.8102 61.0039C48.8102 61.2248 48.8993 61.4415 49.0563 61.5976C49.2125 61.7546 49.4284 61.8438 49.65 61.8438C49.8709 61.8438 50.0876 61.7546 50.2438 61.5976C50.4 61.4415 50.4899 61.2255 50.4899 61.0039C50.4899 60.783 50.4001 60.5663 50.2438 60.4101Z" fill="white"/>
<path d="M46.4746 60.1655H43.7871C43.3233 60.1655 42.9473 60.5416 42.9473 61.0053C42.9473 61.4691 43.3233 61.8452 43.7871 61.8452H46.4746C46.9384 61.8452 47.3145 61.4691 47.3145 61.0053C47.3145 60.5416 46.9385 60.1655 46.4746 60.1655Z" fill="white"/>
<path d="M49.6498 56.1338H43.7871C43.3233 56.1338 42.9473 56.5099 42.9473 56.9737C42.9473 57.4374 43.3233 57.8135 43.7871 57.8135H49.6498C50.1136 57.8135 50.4896 57.4374 50.4896 56.9737C50.4896 56.5099 50.1136 56.1338 49.6498 56.1338Z" fill="white"/>
</g>
<defs>
<clipPath id="clip0">
<rect width="43" height="43" fill="white" transform="translate(39 39)"/>
</clipPath>
</defs>
</svg>
