<svg width="121" height="121" viewBox="0 0 121 121" fill="none" xmlns="http://www.w3.org/2000/svg">
<circle cx="60.5" cy="60.5" r="47.5" fill="#3F3359"/>
<circle cx="60.5" cy="60.5" r="59.5" stroke="#9FCE0D" stroke-width="2" stroke-dasharray="2 2"/>
<path d="M79.5199 78.8042C79.0426 78.8042 78.6556 79.1911 78.6556 79.6684V87.7941C78.6556 88.0571 78.4415 88.2713 78.1785 88.2713H73.5326V71.2515C73.5326 70.7742 73.1456 70.3872 72.6683 70.3872C72.191 70.3872 71.804 70.7742 71.804 71.2515V88.2714H62.4487L65.1617 85.2868C65.4581 84.9607 65.5979 84.4962 65.5355 84.0438C65.5344 84.035 65.533 84.0263 65.5315 84.0175L62.9476 68.7527L63.6437 67.7048C64.0286 67.9781 64.3251 68.2413 64.8811 68.2413C65.4467 68.2413 65.9755 67.9248 66.2357 67.4037V67.4036L68.961 61.9415L75.1693 64.3458C75.3939 64.4422 78.6554 65.9109 78.6554 69.7893V75.6351C78.6553 76.1123 79.0423 76.4994 79.5197 76.4994C79.997 76.4994 80.3839 76.1124 80.3839 75.6351V69.7893C80.3839 64.6793 76.0086 62.8219 75.8224 62.7452C75.817 62.7429 75.8114 62.7407 75.8059 62.7387L65.4731 58.737V56.3137C67.1142 55.0373 68.2522 53.1453 68.5378 50.9867C69.3561 50.9291 70.1154 50.6235 70.7355 50.0903C71.5452 49.3939 72.0098 48.3805 72.0098 47.3102C72.0098 46.4219 71.6894 45.5738 71.1183 44.9129V41.7114C71.1182 35.8052 66.3131 31 60.4069 31C54.5007 31 49.6956 35.8052 49.6956 41.7114V44.9968C49.1184 45.651 48.8045 46.4563 48.8045 47.31C48.8045 48.3807 49.2689 49.3941 50.0789 50.0905C50.6985 50.6235 51.4573 50.9287 52.2754 50.9865C52.5634 53.1855 53.7345 55.1481 55.5154 56.4416V58.737L45.1938 62.7385C45.1884 62.7406 45.1829 62.7428 45.1775 62.745C44.9912 62.8216 40.616 64.6791 40.616 69.789V87.7938C40.616 89.0101 41.6055 89.9997 42.8218 89.9997H51.0561C51.5334 89.9997 51.9203 89.6127 51.9203 89.1354C51.9203 88.6581 51.5334 88.2711 51.0561 88.2711H49.1965V71.2515C49.1965 70.7742 48.8096 70.3872 48.3323 70.3872C47.855 70.3872 47.468 70.7742 47.468 71.2515V88.2714H42.8219C42.5588 88.2714 42.3447 88.0573 42.3447 87.7942V69.7892C42.3447 65.8978 45.6281 64.4324 45.8297 64.3462L52.0333 61.9412L54.7588 67.4036C55.0196 67.9259 55.5491 68.2413 56.1135 68.2413C56.6667 68.2413 56.9604 67.9822 57.3509 67.7048L58.047 68.7527L55.4633 84.0176C55.4618 84.0262 55.4606 84.0349 55.4593 84.0437C55.3968 84.4958 55.5366 84.9606 55.8331 85.2869L58.5461 88.2715H55.0896C54.6123 88.2715 54.2254 88.6584 54.2254 89.1357C54.2254 89.613 54.6123 90 55.0896 90H78.1786C79.3949 90 80.3844 89.0104 80.3844 87.7942V79.6685C80.3842 79.1911 79.9972 78.8042 79.5199 78.8042ZM67.342 61.3146L64.8012 66.4068C64.7381 66.362 63.3916 65.4053 61.7456 64.2365C62.4598 63.3548 61.6242 64.3862 64.884 60.3626L67.342 61.3146ZM62.2335 66.7034L61.5746 67.6952H59.4193L58.7604 66.7034L60.497 65.4701L62.2335 66.7034ZM57.2438 59.0159V57.3985C58.2938 57.8217 59.416 58.018 60.5119 58.018C61.645 58.018 62.7562 57.7764 63.7444 57.3443V59.0229L60.497 63.0314L57.2438 59.0159ZM70.2812 47.3102C70.2811 47.8763 70.0359 48.412 69.6084 48.7797C69.3257 49.0229 68.9843 49.1783 68.6103 49.2392V45.3815C69.6036 45.5428 70.2812 46.3667 70.2812 47.3102ZM52.2039 49.2392C51.1993 49.0761 50.533 48.2455 50.533 47.31C50.533 46.3861 51.299 45.6341 52.2039 45.4249V49.2392ZM52.2504 43.6638C51.9751 43.6954 51.6596 43.7699 51.4244 43.8499V41.7114C51.4244 36.7583 55.4539 32.7286 60.407 32.7286C65.3601 32.7286 69.3896 36.7583 69.3896 41.7114V43.7906C69.1384 43.7142 68.8779 43.6637 68.6104 43.6399C68.6104 42.806 68.6177 42.9669 65.8895 40.0338C65.3878 39.4947 64.5579 39.3818 63.9263 39.7945C60.9152 41.7614 57.2421 42.7495 53.8531 42.5062C53.1097 42.4505 52.4326 42.9401 52.2504 43.6638ZM53.9326 49.9196V44.5276V44.2435C57.6633 44.462 61.5747 43.3537 64.7345 41.3301C65.9857 42.6735 66.6633 43.3781 66.8818 43.6462C66.8818 44.3242 66.8818 49.1434 66.8818 49.9195C66.8818 53.4281 64.021 56.2892 60.512 56.2892C56.5717 56.2893 53.9326 53.2326 53.9326 49.9196ZM56.1929 66.4068L53.6521 61.3146L56.1058 60.3643L59.2449 64.239C57.6485 65.3726 56.3377 66.3039 56.1929 66.4068ZM57.1845 84.2039L59.6861 69.4236H61.3076L63.8092 84.2039L60.4969 87.848L57.1845 84.2039Z" fill="white"/>
</svg>
