<svg width="121" height="121" viewBox="0 0 121 121" fill="none" xmlns="http://www.w3.org/2000/svg">
<circle cx="60.5" cy="60.5" r="47.5" fill="#3F3359"/>
<circle cx="60.5" cy="60.5" r="59.5" stroke="#9FCE0D" stroke-width="2" stroke-dasharray="2 2"/>
<path d="M73.9788 62.1414L68.6801 55.3962C70.5616 53.4673 71.6978 50.9334 71.8866 48.2454H80.0913V49.1433C78.1921 49.5336 76.8282 51.2043 76.8261 53.1432C76.8266 55.3974 78.6543 57.2244 80.9085 57.224C83.1626 57.2236 84.9896 55.3957 84.9892 53.1416C84.9888 51.2024 83.624 49.5312 81.724 49.1433V47.4291C81.724 46.9783 81.3584 46.6128 80.9076 46.6128H71.8866C71.727 44.3511 70.894 42.1889 69.4948 40.4047L70.6336 39.266H80.2415C80.6923 40.5411 82.0916 41.2094 83.3667 40.7585C84.6418 40.3077 85.3101 38.9084 84.8592 37.6333C84.4083 36.3583 83.0092 35.6899 81.7342 36.1407C81.0367 36.3873 80.4882 36.9359 80.2416 37.6332H70.2957C70.0792 37.6332 69.8716 37.7194 69.7186 37.8724L68.4002 39.1908C63.8638 34.8219 56.6446 34.9577 52.2756 39.4941C50.4187 41.4222 49.2992 43.9422 49.1133 46.6127H42.2563L39.5877 40.6104C40.7806 39.9826 41.2388 38.5067 40.611 37.3138C39.9833 36.1208 38.5073 35.6628 37.3144 36.2905C36.1215 36.9183 35.6634 38.3942 36.2911 39.5871C36.621 40.214 37.2071 40.6668 37.8971 40.8275L40.9787 47.7612C41.1099 48.0558 41.4023 48.2455 41.7248 48.2453H49.1132C49.3012 50.9024 50.4154 53.4092 52.2617 55.3292L45.3704 62.2205C40.9145 61.5529 36.761 64.6238 36.0934 69.0797C35.4257 73.5357 38.4967 77.6891 42.9526 78.3568C43.0871 78.377 43.2221 78.3937 43.3574 78.4071V82.5303C43.3574 82.9811 43.7229 83.3466 44.1737 83.3466H51.6707C52.1215 84.6218 53.5208 85.29 54.7958 84.8391C56.0709 84.3882 56.7393 82.989 56.2884 81.714C55.8374 80.4389 54.4383 79.7705 53.1632 80.2214C52.4658 80.468 51.9172 81.0166 51.6707 81.714H44.99V78.4071C49.4734 77.9602 52.7457 73.9633 52.2987 69.4798C51.9963 66.446 50.0274 63.8339 47.1941 62.7078L53.4796 56.4222C57.573 59.6452 63.3347 59.6684 67.454 56.4786L71.9829 62.2433C65.7295 63.1157 61.3672 68.8922 62.2396 75.1455C63.1119 81.399 68.8884 85.7612 75.1417 84.8889C81.3952 84.0166 85.7574 78.2401 84.8851 71.9867C84.119 66.494 79.521 62.3433 73.9788 62.1414ZM83.3566 53.1432C83.3566 54.4958 82.2602 55.5922 80.9076 55.5922C79.5551 55.5922 78.4587 54.4958 78.4587 53.1432C78.4587 51.7907 79.5551 50.6943 80.9076 50.6943C82.2602 50.6943 83.3566 51.7907 83.3566 53.1432ZM82.5403 37.6333C82.9911 37.6333 83.3566 37.9989 83.3566 38.4497C83.3566 38.9005 82.9911 39.266 82.5403 39.266C82.0895 39.266 81.724 38.9005 81.724 38.4497C81.724 37.9989 82.0895 37.6333 82.5403 37.6333ZM38.4595 39.266C38.0087 39.266 37.6432 38.9005 37.6432 38.4497C37.6432 37.9989 38.0087 37.6333 38.4595 37.6333C38.9104 37.6333 39.2759 37.9989 39.2759 38.4497C39.2759 38.9005 38.9104 39.266 38.4595 39.266ZM53.9694 81.7141C54.4202 81.7141 54.7857 82.0796 54.7857 82.5304C54.7857 82.9812 54.4202 83.3467 53.9694 83.3467C53.5186 83.3467 53.1531 82.9812 53.1531 82.5304C53.1531 82.0796 53.5186 81.7141 53.9694 81.7141ZM47.4389 75.933C45.4215 77.1111 42.9259 77.1111 40.9085 75.933V74.3673C40.9085 72.5639 42.3704 71.102 44.1737 71.102C45.977 71.102 47.4389 72.5639 47.4389 74.3673V75.933ZM42.5411 67.8368C42.5411 66.9351 43.272 66.2042 44.1737 66.2042C45.0754 66.2042 45.8063 66.9351 45.8063 67.8368C45.8063 68.7385 45.0754 69.4694 44.1737 69.4694C43.272 69.4694 42.5411 68.7384 42.5411 67.8368ZM49.0716 65.9519C50.1269 67.1486 50.7077 68.6901 50.7042 70.2857C50.7039 71.872 50.1232 73.4033 49.0716 74.5909V74.3673C49.0705 72.5826 48.0988 70.9397 46.5353 70.0792C47.7805 68.7747 47.7323 66.7078 46.4278 65.4627C45.1234 64.2176 43.0565 64.2657 41.8113 65.5701C40.6069 66.8318 40.6069 68.8174 41.8113 70.0791C40.2481 70.9398 39.2768 72.5826 39.2759 74.3672V74.5908C36.8903 71.8858 37.1493 67.759 39.8542 65.3735C42.5593 62.9879 46.686 63.2469 49.0716 65.9519ZM66.2141 55.3669C62.8063 57.8409 58.1935 57.8409 54.7857 55.3669V53.3881C54.7857 51.9004 55.9918 50.6943 57.4796 50.6943H59.2918L58.1073 53.6559C57.986 53.9592 58.0573 54.3059 58.2885 54.5367L59.9211 56.1693C60.2399 56.488 60.7566 56.488 61.0754 56.1693L62.708 54.5367C62.9392 54.3058 63.0106 53.9592 62.8892 53.6559L61.7056 50.6943H63.5202C65.008 50.6943 66.2141 51.9004 66.2141 53.3881V55.3669V55.3669ZM60.6167 42.1108C60.5861 42.1618 60.5612 42.2159 60.5425 42.2723C60.1294 43.5107 57.8993 43.9801 56.4635 44.1164C56.6824 41.3807 57.9697 40.0822 60.5 40.0822C62.8167 40.0822 64.0918 41.1777 64.4567 43.4633L61.7367 41.8307C61.35 41.5989 60.8486 41.7243 60.6167 42.1108ZM61.6256 43.6691L64.5431 45.4201C64.2157 47.4185 61.7529 49.0617 60.4999 49.0617C58.6792 48.7516 57.1647 47.4891 56.5318 45.754C57.9293 45.6389 60.4526 45.2152 61.6256 43.6691ZM61.1742 53.7628L60.4999 54.4379L59.8256 53.7628L60.4999 52.0755L61.1742 53.7628ZM64.0615 49.0992C65.3349 48.0971 66.1185 46.5978 66.2141 44.9801C66.2141 39.5827 63.1064 38.4497 60.4999 38.4497C57.8934 38.4497 54.7857 39.5827 54.7857 44.9801C54.8806 46.5987 55.6643 48.099 56.9383 49.1017C54.7745 49.3683 53.15 51.2079 53.1531 53.3881V53.8844C49.5747 49.827 49.9631 43.6368 54.0206 40.0584C58.0782 36.48 64.2683 36.8684 67.8467 40.9258C71.1119 44.6283 71.1119 50.1819 67.8467 53.8843V53.388C67.8511 51.2069 66.2262 49.3659 64.0615 49.0992ZM79.275 81.4888C75.8672 83.9628 71.2545 83.9628 67.8467 81.4888V79.51C67.8467 78.0223 69.0528 76.8162 70.5405 76.8162H72.3527L71.1683 79.7778C71.0469 80.0811 71.1183 80.4277 71.3495 80.6586L72.9821 82.2912C73.3009 82.6099 73.8176 82.6099 74.1364 82.2912L75.769 80.6586C76.0002 80.4277 76.0715 80.0811 75.9502 79.7778L74.7665 76.8162H76.5812C78.0689 76.8162 79.275 78.0223 79.275 79.51V81.4888V81.4888ZM74.6865 69.791V69.7902L77.604 71.5412C77.2767 73.5404 74.8139 75.1836 73.5609 75.1836C71.7402 74.8735 70.2256 73.611 69.5928 71.8759C70.9903 71.7608 73.5135 71.337 74.6865 69.791ZM69.5242 70.2384C69.743 67.5029 71.0303 66.2042 73.5609 66.2042C75.8775 66.2042 77.1526 67.2997 77.5175 69.5853L74.7976 67.9527C74.4109 67.7208 73.9095 67.8462 73.6776 68.2328C73.647 68.2838 73.6221 68.3379 73.6033 68.3943C73.1903 69.6327 70.9601 70.1021 69.5242 70.2384ZM74.2351 79.8847L73.5609 80.5598L72.8866 79.8847L73.5609 78.1974L74.2351 79.8847ZM80.9076 80.0087V79.5099C80.912 77.3287 79.2872 75.4878 77.1224 75.221C78.3959 74.2189 79.1794 72.7196 79.275 71.1019C79.275 65.7045 76.1673 64.5715 73.5609 64.5715C70.9544 64.5715 67.8467 65.7045 67.8467 71.1019C67.9416 72.7205 68.7252 74.2209 69.9993 75.2235C67.8355 75.4901 66.2109 77.3297 66.2141 79.5099V80.0062C62.644 75.9456 63.0418 69.7596 67.1024 66.1896C71.163 62.6196 77.349 63.0173 80.9191 67.0779C82.4921 68.8671 83.3587 71.1685 83.3566 73.5508C83.3561 75.9303 82.4851 78.2273 80.9076 80.0087Z" fill="white"/>
</svg>
