<svg width="121" height="121" viewBox="0 0 121 121" fill="none" xmlns="http://www.w3.org/2000/svg">
<circle cx="60.5" cy="60.5" r="47.5" fill="#3F3359"/>
<circle cx="60.5" cy="60.5" r="59.5" stroke="#9FCE0D" stroke-width="2" stroke-dasharray="2 2"/>
<path d="M74.0469 33H54.9219C53.6038 33 52.5312 34.0726 52.5312 35.3906V49.0252C51.5184 47.9892 50.1072 47.3438 48.5469 47.3438C48.1062 47.3438 47.75 47.7 47.75 48.1406V73.074L47.2145 72.8884C47.1786 72.8756 47.142 72.8804 47.1053 72.8732C47.0551 72.8629 47.0057 72.8525 46.9547 72.8525C46.9013 72.8525 46.8511 72.8629 46.7993 72.8724C46.7499 72.8828 46.7037 72.8916 46.6575 72.9099C46.6097 72.929 46.5698 72.9561 46.5268 72.984C46.483 73.0119 46.4415 73.039 46.4041 73.0756C46.3666 73.1115 46.3387 73.1537 46.3092 73.1968C46.2877 73.227 46.2582 73.2494 46.2407 73.2836L41.4595 82.8461C41.2626 83.2398 41.422 83.7187 41.8157 83.9155C41.9296 83.9729 42.0515 84 42.1711 84C42.4635 84 42.7448 83.839 42.8851 83.5593L47.3532 74.6232L63.4054 80.2061C63.4062 80.2069 63.4078 80.2069 63.4094 80.2077L64.1632 80.4698L62.9751 82.8461C62.7783 83.2398 62.9376 83.7187 63.3313 83.9155C63.4452 83.9729 63.5672 84 63.6867 84C63.9792 84 64.2605 83.839 64.4007 83.5593L65.9945 80.3718C66.0016 80.3575 66 80.3431 66.0064 80.3296C66.0144 80.3113 66.0271 80.2961 66.0343 80.277C66.0462 80.2427 66.0415 80.2077 66.0486 80.1726C66.0606 80.1192 66.071 80.0666 66.0702 80.0132C66.0702 79.9622 66.0606 79.9144 66.0518 79.8642C66.0415 79.814 66.0327 79.7654 66.0128 79.7176C65.9929 79.6698 65.9666 79.6299 65.9387 79.5869C65.9108 79.5439 65.8845 79.5032 65.8478 79.4658C65.8112 79.4283 65.7681 79.3996 65.7251 79.3694C65.6948 79.3494 65.6733 79.3192 65.639 79.3024C65.6223 79.2945 65.6048 79.2952 65.588 79.2881C65.5721 79.2817 65.5617 79.2682 65.5442 79.2626L65.0852 79.1032L73.6038 69.6562H74.0469C75.3649 69.6562 76.4375 68.5837 76.4375 67.2656C78.1954 67.2656 79.625 65.836 79.625 64.0781C79.625 63.1211 79.1923 62.2716 78.5229 61.6875C79.1923 61.1026 79.625 60.2531 79.625 59.2961C79.625 58.3398 79.1931 57.4896 78.5237 56.9055C79.1931 56.3213 79.625 55.4711 79.625 54.5148C79.625 53.5586 79.1931 52.7091 78.5237 52.125C79.1931 51.5401 79.625 50.6906 79.625 49.7344C79.625 47.9765 78.1954 46.5469 76.4375 46.5469V35.3906C76.4375 34.0726 75.3649 33 74.0469 33V33ZM63.45 78.5358L49.3437 73.6287V49.0188C51.1598 49.3885 52.5312 50.9982 52.5312 52.9219V67.2656C52.5312 68.5837 53.6038 69.6562 54.9219 69.6562H71.4586L63.45 78.5358ZM74.0469 68.0625H54.9219C54.482 68.0625 54.125 67.7055 54.125 67.2656V35.3906C54.125 34.9507 54.482 34.5938 54.9219 34.5938H74.0469C74.4867 34.5938 74.8437 34.9507 74.8437 35.3906V46.66C73.4723 47.0162 72.4531 48.2538 72.4531 49.7344C72.4531 50.6914 72.8858 51.5409 73.5552 52.125C72.8858 52.7099 72.4531 53.5594 72.4531 54.5164C72.4531 55.4727 72.885 56.3229 73.5544 56.907C72.885 57.4912 72.4531 58.3414 72.4531 59.2977C72.4531 60.2539 72.885 61.1034 73.5544 61.6875C72.885 62.2724 72.4531 63.1219 72.4531 64.0781C72.4531 65.5587 73.4723 66.7963 74.8437 67.1525V67.2656C74.8437 67.7055 74.4867 68.0625 74.0469 68.0625ZM76.4375 65.6719H75.6406C74.7617 65.6719 74.0469 64.9571 74.0469 64.0781C74.0469 63.2008 74.7601 62.4868 75.6366 62.4844C75.6382 62.4844 75.639 62.4852 75.6406 62.4852C75.6422 62.4852 75.643 62.4844 75.6446 62.4844H76.4375C77.3165 62.4844 78.0312 63.1992 78.0312 64.0781C78.0312 64.9571 77.3165 65.6719 76.4375 65.6719ZM78.0312 59.2961C78.0312 60.175 77.3165 60.8898 76.4375 60.8898C76.4359 60.8898 76.4351 60.8906 76.4335 60.8906H75.6406C75.639 60.8906 75.6382 60.8906 75.6366 60.8906C74.7601 60.889 74.0469 60.175 74.0469 59.2977C74.0469 58.4187 74.7617 57.7039 75.6406 57.7039C75.6438 57.7039 75.6454 57.7023 75.6486 57.7023H76.4375C77.3165 57.7023 78.0312 58.4171 78.0312 59.2961ZM75.6406 56.1086C75.639 56.1086 75.6374 56.1094 75.635 56.1094C74.7601 56.107 74.0469 55.3938 74.0469 54.5164C74.0469 53.6375 74.7617 52.9227 75.6406 52.9227H76.4375C76.4391 52.9227 76.4407 52.9219 76.4431 52.9219C77.318 52.9243 78.0312 53.6375 78.0312 54.5148C78.0312 55.3938 77.3165 56.1086 76.4375 56.1086H75.6406ZM78.0312 49.7344C78.0312 50.6117 77.318 51.3257 76.4415 51.3281C76.4399 51.3281 76.4391 51.3273 76.4375 51.3273C76.4343 51.3273 76.4327 51.3289 76.4295 51.3289H75.6446C75.643 51.3289 75.6422 51.3281 75.6406 51.3281C74.7617 51.3281 74.0469 50.6133 74.0469 49.7344C74.0469 48.8554 74.7617 48.1406 75.6406 48.1406H76.4375C77.3165 48.1406 78.0312 48.8554 78.0312 49.7344Z" fill="white"/>
<path d="M48.5628 78.4219C48.1229 78.4219 47.7707 78.7781 47.7707 79.2188C47.7707 79.6594 48.1309 80.0156 48.5716 80.0156C49.0114 80.0156 49.3684 79.6594 49.3684 79.2188C49.3684 78.7781 49.0114 78.4219 48.5716 78.4219H48.5628Z" fill="white"/>
<path d="M64.4844 62.4844C63.1663 62.4844 62.0938 63.557 62.0938 64.875C62.0938 66.193 63.1663 67.2656 64.4844 67.2656C65.8024 67.2656 66.875 66.193 66.875 64.875C66.875 63.557 65.8024 62.4844 64.4844 62.4844ZM64.4844 65.6719C64.0445 65.6719 63.6875 65.3149 63.6875 64.875C63.6875 64.4351 64.0445 64.0781 64.4844 64.0781C64.9242 64.0781 65.2812 64.4351 65.2812 64.875C65.2812 65.3149 64.9242 65.6719 64.4844 65.6719Z" fill="white"/>
<path d="M62.1176 37.7812C62.5575 37.7812 62.9145 37.425 62.9145 36.9844C62.9145 36.5437 62.5575 36.1875 62.1176 36.1875H62.1097C61.6698 36.1875 61.3176 36.5437 61.3176 36.9844C61.3176 37.425 61.6778 37.7812 62.1176 37.7812Z" fill="white"/>
<path d="M64.4844 37.7812H66.875C67.3157 37.7812 67.6719 37.425 67.6719 36.9844C67.6719 36.5437 67.3157 36.1875 66.875 36.1875H64.4844C64.0437 36.1875 63.6875 36.5437 63.6875 36.9844C63.6875 37.425 64.0437 37.7812 64.4844 37.7812Z" fill="white"/>
<path d="M64.9617 44.3069C64.9489 44.2973 64.9346 44.2957 64.9211 44.2877C64.8724 44.2551 64.8206 44.2352 64.7665 44.2144C64.7226 44.1977 64.6828 44.1778 64.6374 44.169C64.5848 44.1579 64.5322 44.1602 64.4788 44.1602C64.4294 44.161 64.3832 44.1587 64.3346 44.1682C64.2851 44.1778 64.2421 44.1977 64.1951 44.2168C64.1441 44.2367 64.0939 44.2567 64.0469 44.2877C64.0333 44.2965 64.0182 44.2981 64.0054 44.3069L60.4984 46.9374V45.742C60.4984 45.3014 60.1422 44.9452 59.7015 44.9452C59.2608 44.9452 58.9046 45.3014 58.9046 45.742V48.1327L57.6296 49.0889C57.2774 49.3527 57.2057 49.8523 57.4703 50.2038C57.6265 50.4133 57.8655 50.5225 58.1086 50.5225C58.2751 50.5225 58.4425 50.4707 58.5859 50.3631L58.9046 50.1241V55.3045C58.464 55.3053 58.1086 55.6607 58.1086 56.1014C58.1086 56.5421 58.4648 56.8983 58.9054 56.8983H70.0617C70.5024 56.8983 70.8586 56.5421 70.8586 56.1014C70.8586 55.6607 70.5032 55.3053 70.0625 55.3045V50.1249L70.3812 50.3639C70.5247 50.4715 70.692 50.5233 70.8586 50.5233C71.1016 50.5233 71.3399 50.4133 71.4969 50.2045C71.7614 49.8531 71.6897 49.3535 71.3375 49.0897L64.9617 44.3069ZM68.4687 55.3053H65.2804V53.7116C65.2804 53.2709 64.9242 52.9147 64.4836 52.9147C64.0429 52.9147 63.6867 53.2709 63.6867 53.7116V55.3053H60.4984V48.9287L64.4836 45.9397L68.4687 48.9287V55.3053Z" fill="white"/>
</svg>
